<svg xmlns="http://www.w3.org/2000/svg" xmlns:xlink="http://www.w3.org/1999/xlink" viewBox="0 0 120 107.14"><defs><style>.cls-1{fill:none;}.cls-2{clip-path:url(#clip-path);}.cls-3{fill:url(#未命名的渐变_34);}.cls-4{fill-rule:evenodd;fill:url(#未命名的渐变_35);}</style><clipPath id="clip-path" transform="translate(0 -8.57)"><rect class="cls-1" width="120" height="120"/></clipPath><radialGradient id="未命名的渐变_34" cx="-713.85" cy="610.66" r="1" gradientTransform="matrix(0, 92.36, 89.87, 0, -54822.65, 65954.67)" gradientUnits="userSpaceOnUse"><stop offset="0.48" stop-color="#fe9188"/><stop offset="0.81" stop-color="#ed6459"/></radialGradient><linearGradient id="未命名的渐变_35" x1="60" y1="117.29" x2="60" y2="14.43" gradientTransform="matrix(1, 0, 0, -1, 0, 128)" gradientUnits="userSpaceOnUse"><stop offset="0" stop-color="#f16357"/><stop offset="1" stop-color="#ba1305"/></linearGradient></defs><g id="图层_2" data-name="图层 2"><g id="图层_1-2" data-name="图层 1"><g class="cls-2"><path class="cls-3" d="M109.68,24.83C103.21,17.37,94.44,12.55,84.58,13A31.61,31.61,0,0,0,60.26,27c-1.54-1.55-2.85-3.57-4.55-5.13a42.94,42.94,0,0,0-5.92-4.66,29.25,29.25,0,0,0-15.08-4.35A32.79,32.79,0,0,0,9.15,26.38,37.76,37.76,0,0,0,2.68,54.67c1.85,10.41,8,19.27,15.4,26.42,12.78,12.28,27.4,21.6,40.18,33.73,1.08,1.08,2,1.24,3.08.15,2-1.86,3.69-4,5.85-5.75s4.31-3.73,6.62-5.44C82.12,97.25,90.74,91,98.75,83.89c8.77-7.93,16.32-17.57,18.47-29.53a36.09,36.09,0,0,0-7.54-29.53Z" transform="translate(0 -8.57)"/><path class="cls-4" d="M34.67,8.57h0A31.44,31.44,0,0,1,50.9,13.23l0,0,0,0a46.24,46.24,0,0,1,6.21,4.88,26.54,26.54,0,0,1,2.53,2.78l.25.31.16.2h0A33.75,33.75,0,0,1,84.45,8.73h0c10.67-.51,20,4.72,26.82,12.55l0,0,0,0a38.23,38.23,0,0,1,8,31.26c-2.28,12.64-10.22,22.67-19.15,30.73h0c-5.82,5.21-12,9.94-18.08,14.6q-3.5,2.67-7,5.38l0,0,0,0c-1.09.81-2.16,1.7-3.25,2.63l-.56.48c-.9.78-1.82,1.54-2.75,2.29a26.61,26.61,0,0,0-2.76,2.61l-.54.57c-.75.79-1.55,1.64-2.39,2.43l0,0-.06.06,0,0a4.07,4.07,0,0,1-3.2,1.33,4.59,4.59,0,0,1-2.87-1.49l0,0,0,0,0,0c-6.19-5.88-12.84-11.1-19.58-16.39l-.33-.27A263,263,0,0,1,16.59,80.49h0C9,73.16,2.53,63.92.57,52.9v0A39.85,39.85,0,0,1,7.4,23l0,0A34.93,34.93,0,0,1,34.64,8.57Zm.07,4.29A30.67,30.67,0,0,0,10.89,25.49,35.59,35.59,0,0,0,4.8,52.16C6.54,62,12.36,70.43,19.57,77.4A259.12,259.12,0,0,0,39.49,94.18l.4.32c6.71,5.26,13.5,10.6,19.84,16.62l0,0,0,0,.1.09c.74-.69,1.44-1.43,2.18-2.22l.59-.62a32.25,32.25,0,0,1,3.21-3c.85-.68,1.71-1.41,2.61-2.18l.58-.49c1.1-.93,2.25-1.9,3.46-2.79,2.36-1.86,4.73-3.68,7.1-5.49,6-4.63,12-9.21,17.71-14.3,8.61-7.79,15.76-17,17.79-28.32v0A33.94,33.94,0,0,0,108,24.06C101.89,17,93.72,12.59,84.7,13A29.47,29.47,0,0,0,62,26.05l-1.46,2.17-1.84-1.85C58,25.6,57.27,24.73,56.63,24l-.24-.3a22.59,22.59,0,0,0-2.12-2.34h0a42,42,0,0,0-5.61-4.42,27.09,27.09,0,0,0-13.91-4Z" transform="translate(0 -8.57)"/></g></g></g></svg>